<?xml version="1.0" encoding="utf-8" standalone="no"?>
<!DOCTYPE svg PUBLIC "-//W3C//DTD SVG 1.1//EN"
  "http://www.w3.org/Graphics/SVG/1.1/DTD/svg11.dtd">
<svg xmlns:xlink="http://www.w3.org/1999/xlink" width="288pt" height="252pt" viewBox="0 0 288 252" xmlns="http://www.w3.org/2000/svg" version="1.1">
 <metadata>
  <rdf:RDF xmlns:dc="http://purl.org/dc/elements/1.1/" xmlns:cc="http://creativecommons.org/ns#" xmlns:rdf="http://www.w3.org/1999/02/22-rdf-syntax-ns#">
   <cc:Work>
    <dc:type rdf:resource="http://purl.org/dc/dcmitype/StillImage"/>
    <dc:date>2025-01-19T10:53:09.458723</dc:date>
    <dc:format>image/svg+xml</dc:format>
    <dc:creator>
     <cc:Agent>
      <dc:title>Matplotlib v3.9.2, https://matplotlib.org/</dc:title>
     </cc:Agent>
    </dc:creator>
   </cc:Work>
  </rdf:RDF>
 </metadata>
 <defs>
  <style type="text/css">*{stroke-linejoin: round; stroke-linecap: butt}</style>
 </defs>
 <g id="figure_1">
  <g id="patch_1">
   <path d="M 0 252 
L 288 252 
L 288 0 
L 0 0 
z
" style="fill: #ffffff"/>
  </g>
  <g id="axes_1">
   <g id="patch_2">
    <path d="M 44.873677 213.307416 
L 284.99976 213.307416 
L 284.99976 7.652818 
L 44.873677 7.652818 
z
" style="fill: #ffffff"/>
   </g>
   <g id="matplotlib.axis_1">
    <g id="xtick_1">
     <g id="line2d_1">
      <path d="M 56.308253 213.307416 
L 56.308253 7.652818 
" clip-path="url(#p25f250c686)" style="fill: none; stroke: #e0e0e0; stroke-width: 0.8; stroke-linecap: square"/>
     </g>
     <g id="line2d_2">
      <defs>
       <path id="m4fe80f2daf" d="M 0 0 
L 0 3.5 
" style="stroke: #e0e0e0; stroke-width: 0.8"/>
      </defs>
      <g>
       <use xlink:href="#m4fe80f2daf" x="56.308253" y="213.307416" style="fill: #e0e0e0; stroke: #e0e0e0; stroke-width: 0.8"/>
      </g>
     </g>
     <g id="text_1">
      <!-- 0.0 -->
      <g transform="translate(47.273253 229.612572) scale(0.13 -0.13)">
       <defs>
        <path id="ArialMT-30" d="M 266 2259 
Q 266 3072 433 3567 
Q 600 4063 929 4331 
Q 1259 4600 1759 4600 
Q 2128 4600 2406 4451 
Q 2684 4303 2865 4023 
Q 3047 3744 3150 3342 
Q 3253 2941 3253 2259 
Q 3253 1453 3087 958 
Q 2922 463 2592 192 
Q 2263 -78 1759 -78 
Q 1097 -78 719 397 
Q 266 969 266 2259 
z
M 844 2259 
Q 844 1131 1108 757 
Q 1372 384 1759 384 
Q 2147 384 2411 759 
Q 2675 1134 2675 2259 
Q 2675 3391 2411 3762 
Q 2147 4134 1753 4134 
Q 1366 4134 1134 3806 
Q 844 3388 844 2259 
z
" transform="scale(0.015625)"/>
        <path id="ArialMT-2e" d="M 581 0 
L 581 641 
L 1222 641 
L 1222 0 
L 581 0 
z
" transform="scale(0.015625)"/>
       </defs>
       <use xlink:href="#ArialMT-30"/>
       <use xlink:href="#ArialMT-2e" x="55.615234"/>
       <use xlink:href="#ArialMT-30" x="83.398438"/>
      </g>
     </g>
    </g>
    <g id="xtick_2">
     <g id="line2d_3">
      <path d="M 79.177404 213.307416 
L 79.177404 7.652818 
" clip-path="url(#p25f250c686)" style="fill: none; stroke: #e0e0e0; stroke-width: 0.8; stroke-linecap: square"/>
     </g>
     <g id="line2d_4">
      <g>
       <use xlink:href="#m4fe80f2daf" x="79.177404" y="213.307416" style="fill: #e0e0e0; stroke: #e0e0e0; stroke-width: 0.8"/>
      </g>
     </g>
     <g id="text_2">
      <!-- 0.1 -->
      <g transform="translate(70.142404 229.612572) scale(0.13 -0.13)">
       <defs>
        <path id="ArialMT-31" d="M 2384 0 
L 1822 0 
L 1822 3584 
Q 1619 3391 1289 3197 
Q 959 3003 697 2906 
L 697 3450 
Q 1169 3672 1522 3987 
Q 1875 4303 2022 4600 
L 2384 4600 
L 2384 0 
z
" transform="scale(0.015625)"/>
       </defs>
       <use xlink:href="#ArialMT-30"/>
       <use xlink:href="#ArialMT-2e" x="55.615234"/>
       <use xlink:href="#ArialMT-31" x="83.398438"/>
      </g>
     </g>
    </g>
    <g id="xtick_3">
     <g id="line2d_5">
      <path d="M 102.046554 213.307416 
L 102.046554 7.652818 
" clip-path="url(#p25f250c686)" style="fill: none; stroke: #e0e0e0; stroke-width: 0.8; stroke-linecap: square"/>
     </g>
     <g id="line2d_6">
      <g>
       <use xlink:href="#m4fe80f2daf" x="102.046554" y="213.307416" style="fill: #e0e0e0; stroke: #e0e0e0; stroke-width: 0.8"/>
      </g>
     </g>
     <g id="text_3">
      <!-- 0.2 -->
      <g transform="translate(93.011554 229.612572) scale(0.13 -0.13)">
       <defs>
        <path id="ArialMT-32" d="M 3222 541 
L 3222 0 
L 194 0 
Q 188 203 259 391 
Q 375 700 629 1000 
Q 884 1300 1366 1694 
Q 2113 2306 2375 2664 
Q 2638 3022 2638 3341 
Q 2638 3675 2398 3904 
Q 2159 4134 1775 4134 
Q 1369 4134 1125 3890 
Q 881 3647 878 3216 
L 300 3275 
Q 359 3922 746 4261 
Q 1134 4600 1788 4600 
Q 2447 4600 2831 4234 
Q 3216 3869 3216 3328 
Q 3216 3053 3103 2787 
Q 2991 2522 2730 2228 
Q 2469 1934 1863 1422 
Q 1356 997 1212 845 
Q 1069 694 975 541 
L 3222 541 
z
" transform="scale(0.015625)"/>
       </defs>
       <use xlink:href="#ArialMT-30"/>
       <use xlink:href="#ArialMT-2e" x="55.615234"/>
       <use xlink:href="#ArialMT-32" x="83.398438"/>
      </g>
     </g>
    </g>
    <g id="xtick_4">
     <g id="line2d_7">
      <path d="M 124.915705 213.307416 
L 124.915705 7.652818 
" clip-path="url(#p25f250c686)" style="fill: none; stroke: #e0e0e0; stroke-width: 0.8; stroke-linecap: square"/>
     </g>
     <g id="line2d_8">
      <g>
       <use xlink:href="#m4fe80f2daf" x="124.915705" y="213.307416" style="fill: #e0e0e0; stroke: #e0e0e0; stroke-width: 0.8"/>
      </g>
     </g>
     <g id="text_4">
      <!-- 0.3 -->
      <g transform="translate(115.880705 229.612572) scale(0.13 -0.13)">
       <defs>
        <path id="ArialMT-33" d="M 269 1209 
L 831 1284 
Q 928 806 1161 595 
Q 1394 384 1728 384 
Q 2125 384 2398 659 
Q 2672 934 2672 1341 
Q 2672 1728 2419 1979 
Q 2166 2231 1775 2231 
Q 1616 2231 1378 2169 
L 1441 2663 
Q 1497 2656 1531 2656 
Q 1891 2656 2178 2843 
Q 2466 3031 2466 3422 
Q 2466 3731 2256 3934 
Q 2047 4138 1716 4138 
Q 1388 4138 1169 3931 
Q 950 3725 888 3313 
L 325 3413 
Q 428 3978 793 4289 
Q 1159 4600 1703 4600 
Q 2078 4600 2393 4439 
Q 2709 4278 2876 4000 
Q 3044 3722 3044 3409 
Q 3044 3113 2884 2869 
Q 2725 2625 2413 2481 
Q 2819 2388 3044 2092 
Q 3269 1797 3269 1353 
Q 3269 753 2831 336 
Q 2394 -81 1725 -81 
Q 1122 -81 723 278 
Q 325 638 269 1209 
z
" transform="scale(0.015625)"/>
       </defs>
       <use xlink:href="#ArialMT-30"/>
       <use xlink:href="#ArialMT-2e" x="55.615234"/>
       <use xlink:href="#ArialMT-33" x="83.398438"/>
      </g>
     </g>
    </g>
    <g id="xtick_5">
     <g id="line2d_9">
      <path d="M 147.784856 213.307416 
L 147.784856 7.652818 
" clip-path="url(#p25f250c686)" style="fill: none; stroke: #e0e0e0; stroke-width: 0.8; stroke-linecap: square"/>
     </g>
     <g id="line2d_10">
      <g>
       <use xlink:href="#m4fe80f2daf" x="147.784856" y="213.307416" style="fill: #e0e0e0; stroke: #e0e0e0; stroke-width: 0.8"/>
      </g>
     </g>
     <g id="text_5">
      <!-- 0.4 -->
      <g transform="translate(138.749856 229.612572) scale(0.13 -0.13)">
       <defs>
        <path id="ArialMT-34" d="M 2069 0 
L 2069 1097 
L 81 1097 
L 81 1613 
L 2172 4581 
L 2631 4581 
L 2631 1613 
L 3250 1613 
L 3250 1097 
L 2631 1097 
L 2631 0 
L 2069 0 
z
M 2069 1613 
L 2069 3678 
L 634 1613 
L 2069 1613 
z
" transform="scale(0.015625)"/>
       </defs>
       <use xlink:href="#ArialMT-30"/>
       <use xlink:href="#ArialMT-2e" x="55.615234"/>
       <use xlink:href="#ArialMT-34" x="83.398438"/>
      </g>
     </g>
    </g>
    <g id="xtick_6">
     <g id="line2d_11">
      <path d="M 170.654006 213.307416 
L 170.654006 7.652818 
" clip-path="url(#p25f250c686)" style="fill: none; stroke: #e0e0e0; stroke-width: 0.8; stroke-linecap: square"/>
     </g>
     <g id="line2d_12">
      <g>
       <use xlink:href="#m4fe80f2daf" x="170.654006" y="213.307416" style="fill: #e0e0e0; stroke: #e0e0e0; stroke-width: 0.8"/>
      </g>
     </g>
     <g id="text_6">
      <!-- 0.5 -->
      <g transform="translate(161.619006 229.612572) scale(0.13 -0.13)">
       <defs>
        <path id="ArialMT-35" d="M 266 1200 
L 856 1250 
Q 922 819 1161 601 
Q 1400 384 1738 384 
Q 2144 384 2425 690 
Q 2706 997 2706 1503 
Q 2706 1984 2436 2262 
Q 2166 2541 1728 2541 
Q 1456 2541 1237 2417 
Q 1019 2294 894 2097 
L 366 2166 
L 809 4519 
L 3088 4519 
L 3088 3981 
L 1259 3981 
L 1013 2750 
Q 1425 3038 1878 3038 
Q 2478 3038 2890 2622 
Q 3303 2206 3303 1553 
Q 3303 931 2941 478 
Q 2500 -78 1738 -78 
Q 1113 -78 717 272 
Q 322 622 266 1200 
z
" transform="scale(0.015625)"/>
       </defs>
       <use xlink:href="#ArialMT-30"/>
       <use xlink:href="#ArialMT-2e" x="55.615234"/>
       <use xlink:href="#ArialMT-35" x="83.398438"/>
      </g>
     </g>
    </g>
    <g id="xtick_7">
     <g id="line2d_13">
      <path d="M 193.523157 213.307416 
L 193.523157 7.652818 
" clip-path="url(#p25f250c686)" style="fill: none; stroke: #e0e0e0; stroke-width: 0.8; stroke-linecap: square"/>
     </g>
     <g id="line2d_14">
      <g>
       <use xlink:href="#m4fe80f2daf" x="193.523157" y="213.307416" style="fill: #e0e0e0; stroke: #e0e0e0; stroke-width: 0.8"/>
      </g>
     </g>
     <g id="text_7">
      <!-- 0.6 -->
      <g transform="translate(184.488157 229.612572) scale(0.13 -0.13)">
       <defs>
        <path id="ArialMT-36" d="M 3184 3459 
L 2625 3416 
Q 2550 3747 2413 3897 
Q 2184 4138 1850 4138 
Q 1581 4138 1378 3988 
Q 1113 3794 959 3422 
Q 806 3050 800 2363 
Q 1003 2672 1297 2822 
Q 1591 2972 1913 2972 
Q 2475 2972 2870 2558 
Q 3266 2144 3266 1488 
Q 3266 1056 3080 686 
Q 2894 316 2569 119 
Q 2244 -78 1831 -78 
Q 1128 -78 684 439 
Q 241 956 241 2144 
Q 241 3472 731 4075 
Q 1159 4600 1884 4600 
Q 2425 4600 2770 4297 
Q 3116 3994 3184 3459 
z
M 888 1484 
Q 888 1194 1011 928 
Q 1134 663 1356 523 
Q 1578 384 1822 384 
Q 2178 384 2434 671 
Q 2691 959 2691 1453 
Q 2691 1928 2437 2201 
Q 2184 2475 1800 2475 
Q 1419 2475 1153 2201 
Q 888 1928 888 1484 
z
" transform="scale(0.015625)"/>
       </defs>
       <use xlink:href="#ArialMT-30"/>
       <use xlink:href="#ArialMT-2e" x="55.615234"/>
       <use xlink:href="#ArialMT-36" x="83.398438"/>
      </g>
     </g>
    </g>
    <g id="xtick_8">
     <g id="line2d_15">
      <path d="M 216.392308 213.307416 
L 216.392308 7.652818 
" clip-path="url(#p25f250c686)" style="fill: none; stroke: #e0e0e0; stroke-width: 0.8; stroke-linecap: square"/>
     </g>
     <g id="line2d_16">
      <g>
       <use xlink:href="#m4fe80f2daf" x="216.392308" y="213.307416" style="fill: #e0e0e0; stroke: #e0e0e0; stroke-width: 0.8"/>
      </g>
     </g>
     <g id="text_8">
      <!-- 0.7 -->
      <g transform="translate(207.357308 229.612572) scale(0.13 -0.13)">
       <defs>
        <path id="ArialMT-37" d="M 303 3981 
L 303 4522 
L 3269 4522 
L 3269 4084 
Q 2831 3619 2401 2847 
Q 1972 2075 1738 1259 
Q 1569 684 1522 0 
L 944 0 
Q 953 541 1156 1306 
Q 1359 2072 1739 2783 
Q 2119 3494 2547 3981 
L 303 3981 
z
" transform="scale(0.015625)"/>
       </defs>
       <use xlink:href="#ArialMT-30"/>
       <use xlink:href="#ArialMT-2e" x="55.615234"/>
       <use xlink:href="#ArialMT-37" x="83.398438"/>
      </g>
     </g>
    </g>
    <g id="xtick_9">
     <g id="line2d_17">
      <path d="M 239.261459 213.307416 
L 239.261459 7.652818 
" clip-path="url(#p25f250c686)" style="fill: none; stroke: #e0e0e0; stroke-width: 0.8; stroke-linecap: square"/>
     </g>
     <g id="line2d_18">
      <g>
       <use xlink:href="#m4fe80f2daf" x="239.261459" y="213.307416" style="fill: #e0e0e0; stroke: #e0e0e0; stroke-width: 0.8"/>
      </g>
     </g>
     <g id="text_9">
      <!-- 0.8 -->
      <g transform="translate(230.226459 229.612572) scale(0.13 -0.13)">
       <defs>
        <path id="ArialMT-38" d="M 1131 2484 
Q 781 2613 612 2850 
Q 444 3088 444 3419 
Q 444 3919 803 4259 
Q 1163 4600 1759 4600 
Q 2359 4600 2725 4251 
Q 3091 3903 3091 3403 
Q 3091 3084 2923 2848 
Q 2756 2613 2416 2484 
Q 2838 2347 3058 2040 
Q 3278 1734 3278 1309 
Q 3278 722 2862 322 
Q 2447 -78 1769 -78 
Q 1091 -78 675 323 
Q 259 725 259 1325 
Q 259 1772 486 2073 
Q 713 2375 1131 2484 
z
M 1019 3438 
Q 1019 3113 1228 2906 
Q 1438 2700 1772 2700 
Q 2097 2700 2305 2904 
Q 2513 3109 2513 3406 
Q 2513 3716 2298 3927 
Q 2084 4138 1766 4138 
Q 1444 4138 1231 3931 
Q 1019 3725 1019 3438 
z
M 838 1322 
Q 838 1081 952 856 
Q 1066 631 1291 507 
Q 1516 384 1775 384 
Q 2178 384 2440 643 
Q 2703 903 2703 1303 
Q 2703 1709 2433 1975 
Q 2163 2241 1756 2241 
Q 1359 2241 1098 1978 
Q 838 1716 838 1322 
z
" transform="scale(0.015625)"/>
       </defs>
       <use xlink:href="#ArialMT-30"/>
       <use xlink:href="#ArialMT-2e" x="55.615234"/>
       <use xlink:href="#ArialMT-38" x="83.398438"/>
      </g>
     </g>
    </g>
    <g id="xtick_10">
     <g id="line2d_19">
      <path d="M 262.130609 213.307416 
L 262.130609 7.652818 
" clip-path="url(#p25f250c686)" style="fill: none; stroke: #e0e0e0; stroke-width: 0.8; stroke-linecap: square"/>
     </g>
     <g id="line2d_20">
      <g>
       <use xlink:href="#m4fe80f2daf" x="262.130609" y="213.307416" style="fill: #e0e0e0; stroke: #e0e0e0; stroke-width: 0.8"/>
      </g>
     </g>
     <g id="text_10">
      <!-- 0.9 -->
      <g transform="translate(253.095609 229.612572) scale(0.13 -0.13)">
       <defs>
        <path id="ArialMT-39" d="M 350 1059 
L 891 1109 
Q 959 728 1153 556 
Q 1347 384 1650 384 
Q 1909 384 2104 503 
Q 2300 622 2425 820 
Q 2550 1019 2634 1356 
Q 2719 1694 2719 2044 
Q 2719 2081 2716 2156 
Q 2547 1888 2255 1720 
Q 1963 1553 1622 1553 
Q 1053 1553 659 1965 
Q 266 2378 266 3053 
Q 266 3750 677 4175 
Q 1088 4600 1706 4600 
Q 2153 4600 2523 4359 
Q 2894 4119 3086 3673 
Q 3278 3228 3278 2384 
Q 3278 1506 3087 986 
Q 2897 466 2520 194 
Q 2144 -78 1638 -78 
Q 1100 -78 759 220 
Q 419 519 350 1059 
z
M 2653 3081 
Q 2653 3566 2395 3850 
Q 2138 4134 1775 4134 
Q 1400 4134 1122 3828 
Q 844 3522 844 3034 
Q 844 2597 1108 2323 
Q 1372 2050 1759 2050 
Q 2150 2050 2401 2323 
Q 2653 2597 2653 3081 
z
" transform="scale(0.015625)"/>
       </defs>
       <use xlink:href="#ArialMT-30"/>
       <use xlink:href="#ArialMT-2e" x="55.615234"/>
       <use xlink:href="#ArialMT-39" x="83.398438"/>
      </g>
     </g>
    </g>
    <g id="text_11">
     <!-- Error Rate -->
     <g transform="translate(132.6525 246.21726) scale(0.14 -0.14)">
      <defs>
       <path id="ArialMT-45" d="M 506 0 
L 506 4581 
L 3819 4581 
L 3819 4041 
L 1113 4041 
L 1113 2638 
L 3647 2638 
L 3647 2100 
L 1113 2100 
L 1113 541 
L 3925 541 
L 3925 0 
L 506 0 
z
" transform="scale(0.015625)"/>
       <path id="ArialMT-72" d="M 416 0 
L 416 3319 
L 922 3319 
L 922 2816 
Q 1116 3169 1280 3281 
Q 1444 3394 1641 3394 
Q 1925 3394 2219 3213 
L 2025 2691 
Q 1819 2813 1613 2813 
Q 1428 2813 1281 2702 
Q 1134 2591 1072 2394 
Q 978 2094 978 1738 
L 978 0 
L 416 0 
z
" transform="scale(0.015625)"/>
       <path id="ArialMT-6f" d="M 213 1659 
Q 213 2581 725 3025 
Q 1153 3394 1769 3394 
Q 2453 3394 2887 2945 
Q 3322 2497 3322 1706 
Q 3322 1066 3130 698 
Q 2938 331 2570 128 
Q 2203 -75 1769 -75 
Q 1072 -75 642 372 
Q 213 819 213 1659 
z
M 791 1659 
Q 791 1022 1069 705 
Q 1347 388 1769 388 
Q 2188 388 2466 706 
Q 2744 1025 2744 1678 
Q 2744 2294 2464 2611 
Q 2184 2928 1769 2928 
Q 1347 2928 1069 2612 
Q 791 2297 791 1659 
z
" transform="scale(0.015625)"/>
       <path id="ArialMT-20" transform="scale(0.015625)"/>
       <path id="ArialMT-52" d="M 503 0 
L 503 4581 
L 2534 4581 
Q 3147 4581 3465 4457 
Q 3784 4334 3975 4021 
Q 4166 3709 4166 3331 
Q 4166 2844 3850 2509 
Q 3534 2175 2875 2084 
Q 3116 1969 3241 1856 
Q 3506 1613 3744 1247 
L 4541 0 
L 3778 0 
L 3172 953 
Q 2906 1366 2734 1584 
Q 2563 1803 2427 1890 
Q 2291 1978 2150 2013 
Q 2047 2034 1813 2034 
L 1109 2034 
L 1109 0 
L 503 0 
z
M 1109 2559 
L 2413 2559 
Q 2828 2559 3062 2645 
Q 3297 2731 3419 2920 
Q 3541 3109 3541 3331 
Q 3541 3656 3305 3865 
Q 3069 4075 2559 4075 
L 1109 4075 
L 1109 2559 
z
" transform="scale(0.015625)"/>
       <path id="ArialMT-61" d="M 2588 409 
Q 2275 144 1986 34 
Q 1697 -75 1366 -75 
Q 819 -75 525 192 
Q 231 459 231 875 
Q 231 1119 342 1320 
Q 453 1522 633 1644 
Q 813 1766 1038 1828 
Q 1203 1872 1538 1913 
Q 2219 1994 2541 2106 
Q 2544 2222 2544 2253 
Q 2544 2597 2384 2738 
Q 2169 2928 1744 2928 
Q 1347 2928 1158 2789 
Q 969 2650 878 2297 
L 328 2372 
Q 403 2725 575 2942 
Q 747 3159 1072 3276 
Q 1397 3394 1825 3394 
Q 2250 3394 2515 3294 
Q 2781 3194 2906 3042 
Q 3031 2891 3081 2659 
Q 3109 2516 3109 2141 
L 3109 1391 
Q 3109 606 3145 398 
Q 3181 191 3288 0 
L 2700 0 
Q 2613 175 2588 409 
z
M 2541 1666 
Q 2234 1541 1622 1453 
Q 1275 1403 1131 1340 
Q 988 1278 909 1158 
Q 831 1038 831 891 
Q 831 666 1001 516 
Q 1172 366 1500 366 
Q 1825 366 2078 508 
Q 2331 650 2450 897 
Q 2541 1088 2541 1459 
L 2541 1666 
z
" transform="scale(0.015625)"/>
       <path id="ArialMT-74" d="M 1650 503 
L 1731 6 
Q 1494 -44 1306 -44 
Q 1000 -44 831 53 
Q 663 150 594 308 
Q 525 466 525 972 
L 525 2881 
L 113 2881 
L 113 3319 
L 525 3319 
L 525 4141 
L 1084 4478 
L 1084 3319 
L 1650 3319 
L 1650 2881 
L 1084 2881 
L 1084 941 
Q 1084 700 1114 631 
Q 1144 563 1211 522 
Q 1278 481 1403 481 
Q 1497 481 1650 503 
z
" transform="scale(0.015625)"/>
       <path id="ArialMT-65" d="M 2694 1069 
L 3275 997 
Q 3138 488 2766 206 
Q 2394 -75 1816 -75 
Q 1088 -75 661 373 
Q 234 822 234 1631 
Q 234 2469 665 2931 
Q 1097 3394 1784 3394 
Q 2450 3394 2872 2941 
Q 3294 2488 3294 1666 
Q 3294 1616 3291 1516 
L 816 1516 
Q 847 969 1125 678 
Q 1403 388 1819 388 
Q 2128 388 2347 550 
Q 2566 713 2694 1069 
z
M 847 1978 
L 2700 1978 
Q 2663 2397 2488 2606 
Q 2219 2931 1791 2931 
Q 1403 2931 1139 2672 
Q 875 2413 847 1978 
z
" transform="scale(0.015625)"/>
      </defs>
      <use xlink:href="#ArialMT-45"/>
      <use xlink:href="#ArialMT-72" x="66.699219"/>
      <use xlink:href="#ArialMT-72" x="100"/>
      <use xlink:href="#ArialMT-6f" x="133.300781"/>
      <use xlink:href="#ArialMT-72" x="188.916016"/>
      <use xlink:href="#ArialMT-20" x="222.216797"/>
      <use xlink:href="#ArialMT-52" x="250"/>
      <use xlink:href="#ArialMT-61" x="322.216797"/>
      <use xlink:href="#ArialMT-74" x="377.832031"/>
      <use xlink:href="#ArialMT-65" x="405.615234"/>
     </g>
    </g>
   </g>
   <g id="matplotlib.axis_2">
    <g id="ytick_1">
     <g id="line2d_21">
      <path d="M 44.873677 213.307416 
L 284.99976 213.307416 
" clip-path="url(#p25f250c686)" style="fill: none; stroke: #e0e0e0; stroke-width: 0.8; stroke-linecap: square"/>
     </g>
     <g id="line2d_22">
      <defs>
       <path id="m1b56d48372" d="M 0 0 
L -3.5 0 
" style="stroke: #e0e0e0; stroke-width: 0.8"/>
      </defs>
      <g>
       <use xlink:href="#m1b56d48372" x="44.873677" y="213.307416" style="fill: #e0e0e0; stroke: #e0e0e0; stroke-width: 0.8"/>
      </g>
     </g>
     <g id="text_12">
      <!-- 0.0 -->
      <g transform="translate(19.803677 217.959994) scale(0.13 -0.13)">
       <use xlink:href="#ArialMT-30"/>
       <use xlink:href="#ArialMT-2e" x="55.615234"/>
       <use xlink:href="#ArialMT-30" x="83.398438"/>
      </g>
     </g>
    </g>
    <g id="ytick_2">
     <g id="line2d_23">
      <path d="M 44.873677 172.176497 
L 284.99976 172.176497 
" clip-path="url(#p25f250c686)" style="fill: none; stroke: #e0e0e0; stroke-width: 0.8; stroke-linecap: square"/>
     </g>
     <g id="line2d_24">
      <g>
       <use xlink:href="#m1b56d48372" x="44.873677" y="172.176497" style="fill: #e0e0e0; stroke: #e0e0e0; stroke-width: 0.8"/>
      </g>
     </g>
     <g id="text_13">
      <!-- 0.2 -->
      <g transform="translate(19.803677 176.829075) scale(0.13 -0.13)">
       <use xlink:href="#ArialMT-30"/>
       <use xlink:href="#ArialMT-2e" x="55.615234"/>
       <use xlink:href="#ArialMT-32" x="83.398438"/>
      </g>
     </g>
    </g>
    <g id="ytick_3">
     <g id="line2d_25">
      <path d="M 44.873677 131.045577 
L 284.99976 131.045577 
" clip-path="url(#p25f250c686)" style="fill: none; stroke: #e0e0e0; stroke-width: 0.8; stroke-linecap: square"/>
     </g>
     <g id="line2d_26">
      <g>
       <use xlink:href="#m1b56d48372" x="44.873677" y="131.045577" style="fill: #e0e0e0; stroke: #e0e0e0; stroke-width: 0.8"/>
      </g>
     </g>
     <g id="text_14">
      <!-- 0.4 -->
      <g transform="translate(19.803677 135.698155) scale(0.13 -0.13)">
       <use xlink:href="#ArialMT-30"/>
       <use xlink:href="#ArialMT-2e" x="55.615234"/>
       <use xlink:href="#ArialMT-34" x="83.398438"/>
      </g>
     </g>
    </g>
    <g id="ytick_4">
     <g id="line2d_27">
      <path d="M 44.873677 89.914657 
L 284.99976 89.914657 
" clip-path="url(#p25f250c686)" style="fill: none; stroke: #e0e0e0; stroke-width: 0.8; stroke-linecap: square"/>
     </g>
     <g id="line2d_28">
      <g>
       <use xlink:href="#m1b56d48372" x="44.873677" y="89.914657" style="fill: #e0e0e0; stroke: #e0e0e0; stroke-width: 0.8"/>
      </g>
     </g>
     <g id="text_15">
      <!-- 0.6 -->
      <g transform="translate(19.803677 94.567235) scale(0.13 -0.13)">
       <use xlink:href="#ArialMT-30"/>
       <use xlink:href="#ArialMT-2e" x="55.615234"/>
       <use xlink:href="#ArialMT-36" x="83.398438"/>
      </g>
     </g>
    </g>
    <g id="ytick_5">
     <g id="line2d_29">
      <path d="M 44.873677 48.783738 
L 284.99976 48.783738 
" clip-path="url(#p25f250c686)" style="fill: none; stroke: #e0e0e0; stroke-width: 0.8; stroke-linecap: square"/>
     </g>
     <g id="line2d_30">
      <g>
       <use xlink:href="#m1b56d48372" x="44.873677" y="48.783738" style="fill: #e0e0e0; stroke: #e0e0e0; stroke-width: 0.8"/>
      </g>
     </g>
     <g id="text_16">
      <!-- 0.8 -->
      <g transform="translate(19.803677 53.436316) scale(0.13 -0.13)">
       <use xlink:href="#ArialMT-30"/>
       <use xlink:href="#ArialMT-2e" x="55.615234"/>
       <use xlink:href="#ArialMT-38" x="83.398438"/>
      </g>
     </g>
    </g>
    <g id="ytick_6">
     <g id="line2d_31">
      <path d="M 44.873677 7.652818 
L 284.99976 7.652818 
" clip-path="url(#p25f250c686)" style="fill: none; stroke: #e0e0e0; stroke-width: 0.8; stroke-linecap: square"/>
     </g>
     <g id="line2d_32">
      <g>
       <use xlink:href="#m1b56d48372" x="44.873677" y="7.652818" style="fill: #e0e0e0; stroke: #e0e0e0; stroke-width: 0.8"/>
      </g>
     </g>
     <g id="text_17">
      <!-- 1.0 -->
      <g transform="translate(19.803677 12.305396) scale(0.13 -0.13)">
       <use xlink:href="#ArialMT-31"/>
       <use xlink:href="#ArialMT-2e" x="55.615234"/>
       <use xlink:href="#ArialMT-30" x="83.398438"/>
      </g>
     </g>
    </g>
    <g id="text_18">
     <!-- ARI -->
     <g transform="translate(13.021177 122.149336) rotate(-90) scale(0.14 -0.14)">
      <defs>
       <path id="ArialMT-41" d="M -9 0 
L 1750 4581 
L 2403 4581 
L 4278 0 
L 3588 0 
L 3053 1388 
L 1138 1388 
L 634 0 
L -9 0 
z
M 1313 1881 
L 2866 1881 
L 2388 3150 
Q 2169 3728 2063 4100 
Q 1975 3659 1816 3225 
L 1313 1881 
z
" transform="scale(0.015625)"/>
       <path id="ArialMT-49" d="M 597 0 
L 597 4581 
L 1203 4581 
L 1203 0 
L 597 0 
z
" transform="scale(0.015625)"/>
      </defs>
      <use xlink:href="#ArialMT-41"/>
      <use xlink:href="#ArialMT-52" x="66.699219"/>
      <use xlink:href="#ArialMT-49" x="138.916016"/>
     </g>
    </g>
   </g>
   <g id="patch_3">
    <path d="M 53.449609 49.16202 
L 59.166897 49.16202 
L 59.166897 44.100703 
L 53.449609 44.100703 
L 53.449609 49.16202 
z
" clip-path="url(#p25f250c686)" style="fill: #ffc0cb; stroke: #666699; stroke-linejoin: miter"/>
   </g>
   <g id="line2d_33">
    <path d="M 56.308253 49.16202 
L 56.308253 55.138767 
" clip-path="url(#p25f250c686)" style="fill: none; stroke: #666699; stroke-linecap: square"/>
   </g>
   <g id="line2d_34">
    <path d="M 56.308253 44.100703 
L 56.308253 40.162935 
" clip-path="url(#p25f250c686)" style="fill: none; stroke: #666699; stroke-linecap: square"/>
   </g>
   <g id="line2d_35">
    <path d="M 54.878931 55.138767 
L 57.737575 55.138767 
" clip-path="url(#p25f250c686)" style="fill: none; stroke: #000000; stroke-linecap: square"/>
   </g>
   <g id="line2d_36">
    <path d="M 54.878931 40.162935 
L 57.737575 40.162935 
" clip-path="url(#p25f250c686)" style="fill: none; stroke: #000000; stroke-linecap: square"/>
   </g>
   <g id="line2d_37">
    <defs>
     <path id="m18f28d205e" d="M 0 1.25 
C 0.331504 1.25 0.649475 1.118292 0.883883 0.883883 
C 1.118292 0.649475 1.25 0.331504 1.25 0 
C 1.25 -0.331504 1.118292 -0.649475 0.883883 -0.883883 
C 0.649475 -1.118292 0.331504 -1.25 0 -1.25 
C -0.331504 -1.25 -0.649475 -1.118292 -0.883883 -0.883883 
C -1.118292 -0.649475 -1.25 -0.331504 -1.25 0 
C -1.25 0.331504 -1.118292 0.649475 -0.883883 0.883883 
C -0.649475 1.118292 -0.331504 1.25 0 1.25 
z
" style="stroke: #ffffff"/>
    </defs>
    <g clip-path="url(#p25f250c686)">
     <use xlink:href="#m18f28d205e" x="56.308253" y="59.284594" style="fill: #666699; stroke: #ffffff"/>
     <use xlink:href="#m18f28d205e" x="56.308253" y="60.738335" style="fill: #666699; stroke: #ffffff"/>
     <use xlink:href="#m18f28d205e" x="56.308253" y="35.684296" style="fill: #666699; stroke: #ffffff"/>
     <use xlink:href="#m18f28d205e" x="56.308253" y="36.081661" style="fill: #666699; stroke: #ffffff"/>
    </g>
   </g>
   <g id="patch_4">
    <path d="M 64.884184 50.14607 
L 70.601472 50.14607 
L 70.601472 44.429414 
L 64.884184 44.429414 
L 64.884184 50.14607 
z
" clip-path="url(#p25f250c686)" style="fill: #ffc0cb; stroke: #666699; stroke-linejoin: miter"/>
   </g>
   <g id="line2d_38">
    <path d="M 67.742828 50.14607 
L 67.742828 57.845143 
" clip-path="url(#p25f250c686)" style="fill: none; stroke: #666699; stroke-linecap: square"/>
   </g>
   <g id="line2d_39">
    <path d="M 67.742828 44.429414 
L 67.742828 37.74252 
" clip-path="url(#p25f250c686)" style="fill: none; stroke: #666699; stroke-linecap: square"/>
   </g>
   <g id="line2d_40">
    <path d="M 66.313506 57.845143 
L 69.17215 57.845143 
" clip-path="url(#p25f250c686)" style="fill: none; stroke: #000000; stroke-linecap: square"/>
   </g>
   <g id="line2d_41">
    <path d="M 66.313506 37.74252 
L 69.17215 37.74252 
" clip-path="url(#p25f250c686)" style="fill: none; stroke: #000000; stroke-linecap: square"/>
   </g>
   <g id="line2d_42">
    <g clip-path="url(#p25f250c686)">
     <use xlink:href="#m18f28d205e" x="67.742828" y="58.963776" style="fill: #666699; stroke: #ffffff"/>
     <use xlink:href="#m18f28d205e" x="67.742828" y="66.523767" style="fill: #666699; stroke: #ffffff"/>
     <use xlink:href="#m18f28d205e" x="67.742828" y="60.812852" style="fill: #666699; stroke: #ffffff"/>
     <use xlink:href="#m18f28d205e" x="67.742828" y="59.939334" style="fill: #666699; stroke: #ffffff"/>
    </g>
   </g>
   <g id="patch_5">
    <path d="M 76.31876 49.60483 
L 82.036047 49.60483 
L 82.036047 43.547569 
L 76.31876 43.547569 
L 76.31876 49.60483 
z
" clip-path="url(#p25f250c686)" style="fill: #ffc0cb; stroke: #666699; stroke-linejoin: miter"/>
   </g>
   <g id="line2d_43">
    <path d="M 79.177404 49.60483 
L 79.177404 57.487854 
" clip-path="url(#p25f250c686)" style="fill: none; stroke: #666699; stroke-linecap: square"/>
   </g>
   <g id="line2d_44">
    <path d="M 79.177404 43.547569 
L 79.177404 38.613105 
" clip-path="url(#p25f250c686)" style="fill: none; stroke: #666699; stroke-linecap: square"/>
   </g>
   <g id="line2d_45">
    <path d="M 77.748082 57.487854 
L 80.606725 57.487854 
" clip-path="url(#p25f250c686)" style="fill: none; stroke: #000000; stroke-linecap: square"/>
   </g>
   <g id="line2d_46">
    <path d="M 77.748082 38.613105 
L 80.606725 38.613105 
" clip-path="url(#p25f250c686)" style="fill: none; stroke: #000000; stroke-linecap: square"/>
   </g>
   <g id="line2d_47">
    <g clip-path="url(#p25f250c686)">
     <use xlink:href="#m18f28d205e" x="79.177404" y="59.502369" style="fill: #666699; stroke: #ffffff"/>
    </g>
   </g>
   <g id="patch_6">
    <path d="M 87.753335 51.094398 
L 93.470623 51.094398 
L 93.470623 44.543314 
L 87.753335 44.543314 
L 87.753335 51.094398 
z
" clip-path="url(#p25f250c686)" style="fill: #ffc0cb; stroke: #666699; stroke-linejoin: miter"/>
   </g>
   <g id="line2d_48">
    <path d="M 90.611979 51.094398 
L 90.611979 59.706847 
" clip-path="url(#p25f250c686)" style="fill: none; stroke: #666699; stroke-linecap: square"/>
   </g>
   <g id="line2d_49">
    <path d="M 90.611979 44.543314 
L 90.611979 37.923674 
" clip-path="url(#p25f250c686)" style="fill: none; stroke: #666699; stroke-linecap: square"/>
   </g>
   <g id="line2d_50">
    <path d="M 89.182657 59.706847 
L 92.041301 59.706847 
" clip-path="url(#p25f250c686)" style="fill: none; stroke: #000000; stroke-linecap: square"/>
   </g>
   <g id="line2d_51">
    <path d="M 89.182657 37.923674 
L 92.041301 37.923674 
" clip-path="url(#p25f250c686)" style="fill: none; stroke: #000000; stroke-linecap: square"/>
   </g>
   <g id="line2d_52"/>
   <g id="patch_7">
    <path d="M 99.18791 52.519257 
L 104.905198 52.519257 
L 104.905198 44.46371 
L 99.18791 44.46371 
L 99.18791 52.519257 
z
" clip-path="url(#p25f250c686)" style="fill: #ffc0cb; stroke: #666699; stroke-linejoin: miter"/>
   </g>
   <g id="line2d_53">
    <path d="M 102.046554 52.519257 
L 102.046554 63.717614 
" clip-path="url(#p25f250c686)" style="fill: none; stroke: #666699; stroke-linecap: square"/>
   </g>
   <g id="line2d_54">
    <path d="M 102.046554 44.46371 
L 102.046554 38.295076 
" clip-path="url(#p25f250c686)" style="fill: none; stroke: #666699; stroke-linecap: square"/>
   </g>
   <g id="line2d_55">
    <path d="M 100.617232 63.717614 
L 103.475876 63.717614 
" clip-path="url(#p25f250c686)" style="fill: none; stroke: #000000; stroke-linecap: square"/>
   </g>
   <g id="line2d_56">
    <path d="M 100.617232 38.295076 
L 103.475876 38.295076 
" clip-path="url(#p25f250c686)" style="fill: none; stroke: #000000; stroke-linecap: square"/>
   </g>
   <g id="line2d_57">
    <g clip-path="url(#p25f250c686)">
     <use xlink:href="#m18f28d205e" x="102.046554" y="65.275949" style="fill: #666699; stroke: #ffffff"/>
    </g>
   </g>
   <g id="patch_8">
    <path d="M 110.622486 53.40199 
L 116.339773 53.40199 
L 116.339773 43.874952 
L 110.622486 43.874952 
L 110.622486 53.40199 
z
" clip-path="url(#p25f250c686)" style="fill: #ffc0cb; stroke: #666699; stroke-linejoin: miter"/>
   </g>
   <g id="line2d_58">
    <path d="M 113.48113 53.40199 
L 113.48113 63.212138 
" clip-path="url(#p25f250c686)" style="fill: none; stroke: #666699; stroke-linecap: square"/>
   </g>
   <g id="line2d_59">
    <path d="M 113.48113 43.874952 
L 113.48113 34.150077 
" clip-path="url(#p25f250c686)" style="fill: none; stroke: #666699; stroke-linecap: square"/>
   </g>
   <g id="line2d_60">
    <path d="M 112.051808 63.212138 
L 114.910452 63.212138 
" clip-path="url(#p25f250c686)" style="fill: none; stroke: #000000; stroke-linecap: square"/>
   </g>
   <g id="line2d_61">
    <path d="M 112.051808 34.150077 
L 114.910452 34.150077 
" clip-path="url(#p25f250c686)" style="fill: none; stroke: #000000; stroke-linecap: square"/>
   </g>
   <g id="line2d_62"/>
   <g id="patch_9">
    <path d="M 122.057061 54.785993 
L 127.774349 54.785993 
L 127.774349 48.19636 
L 122.057061 48.19636 
L 122.057061 54.785993 
z
" clip-path="url(#p25f250c686)" style="fill: #ffc0cb; stroke: #666699; stroke-linejoin: miter"/>
   </g>
   <g id="line2d_63">
    <path d="M 124.915705 54.785993 
L 124.915705 62.916642 
" clip-path="url(#p25f250c686)" style="fill: none; stroke: #666699; stroke-linecap: square"/>
   </g>
   <g id="line2d_64">
    <path d="M 124.915705 48.19636 
L 124.915705 40.774999 
" clip-path="url(#p25f250c686)" style="fill: none; stroke: #666699; stroke-linecap: square"/>
   </g>
   <g id="line2d_65">
    <path d="M 123.486383 62.916642 
L 126.345027 62.916642 
" clip-path="url(#p25f250c686)" style="fill: none; stroke: #000000; stroke-linecap: square"/>
   </g>
   <g id="line2d_66">
    <path d="M 123.486383 40.774999 
L 126.345027 40.774999 
" clip-path="url(#p25f250c686)" style="fill: none; stroke: #000000; stroke-linecap: square"/>
   </g>
   <g id="line2d_67">
    <g clip-path="url(#p25f250c686)">
     <use xlink:href="#m18f28d205e" x="124.915705" y="70.137595" style="fill: #666699; stroke: #ffffff"/>
     <use xlink:href="#m18f28d205e" x="124.915705" y="67.677876" style="fill: #666699; stroke: #ffffff"/>
    </g>
   </g>
   <g id="patch_10">
    <path d="M 133.491637 55.805075 
L 139.208924 55.805075 
L 139.208924 46.629258 
L 133.491637 46.629258 
L 133.491637 55.805075 
z
" clip-path="url(#p25f250c686)" style="fill: #ffc0cb; stroke: #666699; stroke-linejoin: miter"/>
   </g>
   <g id="line2d_68">
    <path d="M 136.35028 55.805075 
L 136.35028 64.267608 
" clip-path="url(#p25f250c686)" style="fill: none; stroke: #666699; stroke-linecap: square"/>
   </g>
   <g id="line2d_69">
    <path d="M 136.35028 46.629258 
L 136.35028 40.02281 
" clip-path="url(#p25f250c686)" style="fill: none; stroke: #666699; stroke-linecap: square"/>
   </g>
   <g id="line2d_70">
    <path d="M 134.920958 64.267608 
L 137.779602 64.267608 
" clip-path="url(#p25f250c686)" style="fill: none; stroke: #000000; stroke-linecap: square"/>
   </g>
   <g id="line2d_71">
    <path d="M 134.920958 40.02281 
L 137.779602 40.02281 
" clip-path="url(#p25f250c686)" style="fill: none; stroke: #000000; stroke-linecap: square"/>
   </g>
   <g id="line2d_72">
    <g clip-path="url(#p25f250c686)">
     <use xlink:href="#m18f28d205e" x="136.35028" y="73.066384" style="fill: #666699; stroke: #ffffff"/>
     <use xlink:href="#m18f28d205e" x="136.35028" y="70.477014" style="fill: #666699; stroke: #ffffff"/>
     <use xlink:href="#m18f28d205e" x="136.35028" y="84.661925" style="fill: #666699; stroke: #ffffff"/>
    </g>
   </g>
   <g id="patch_11">
    <path d="M 144.926212 59.710387 
L 150.6435 59.710387 
L 150.6435 50.205095 
L 144.926212 50.205095 
L 144.926212 59.710387 
z
" clip-path="url(#p25f250c686)" style="fill: #ffc0cb; stroke: #666699; stroke-linejoin: miter"/>
   </g>
   <g id="line2d_73">
    <path d="M 147.784856 59.710387 
L 147.784856 72.879179 
" clip-path="url(#p25f250c686)" style="fill: none; stroke: #666699; stroke-linecap: square"/>
   </g>
   <g id="line2d_74">
    <path d="M 147.784856 50.205095 
L 147.784856 40.591322 
" clip-path="url(#p25f250c686)" style="fill: none; stroke: #666699; stroke-linecap: square"/>
   </g>
   <g id="line2d_75">
    <path d="M 146.355534 72.879179 
L 149.214178 72.879179 
" clip-path="url(#p25f250c686)" style="fill: none; stroke: #000000; stroke-linecap: square"/>
   </g>
   <g id="line2d_76">
    <path d="M 146.355534 40.591322 
L 149.214178 40.591322 
" clip-path="url(#p25f250c686)" style="fill: none; stroke: #000000; stroke-linecap: square"/>
   </g>
   <g id="line2d_77"/>
   <g id="patch_12">
    <path d="M 156.360787 61.219035 
L 162.078075 61.219035 
L 162.078075 51.782742 
L 156.360787 51.782742 
L 156.360787 61.219035 
z
" clip-path="url(#p25f250c686)" style="fill: #ffc0cb; stroke: #666699; stroke-linejoin: miter"/>
   </g>
   <g id="line2d_78">
    <path d="M 159.219431 61.219035 
L 159.219431 74.299572 
" clip-path="url(#p25f250c686)" style="fill: none; stroke: #666699; stroke-linecap: square"/>
   </g>
   <g id="line2d_79">
    <path d="M 159.219431 51.782742 
L 159.219431 40.233363 
" clip-path="url(#p25f250c686)" style="fill: none; stroke: #666699; stroke-linecap: square"/>
   </g>
   <g id="line2d_80">
    <path d="M 157.790109 74.299572 
L 160.648753 74.299572 
" clip-path="url(#p25f250c686)" style="fill: none; stroke: #000000; stroke-linecap: square"/>
   </g>
   <g id="line2d_81">
    <path d="M 157.790109 40.233363 
L 160.648753 40.233363 
" clip-path="url(#p25f250c686)" style="fill: none; stroke: #000000; stroke-linecap: square"/>
   </g>
   <g id="line2d_82">
    <g clip-path="url(#p25f250c686)">
     <use xlink:href="#m18f28d205e" x="159.219431" y="77.84217" style="fill: #666699; stroke: #ffffff"/>
    </g>
   </g>
   <g id="patch_13">
    <path d="M 167.795363 67.833852 
L 173.51265 67.833852 
L 173.51265 57.209404 
L 167.795363 57.209404 
L 167.795363 67.833852 
z
" clip-path="url(#p25f250c686)" style="fill: #ffc0cb; stroke: #666699; stroke-linejoin: miter"/>
   </g>
   <g id="line2d_83">
    <path d="M 170.654006 67.833852 
L 170.654006 82.864223 
" clip-path="url(#p25f250c686)" style="fill: none; stroke: #666699; stroke-linecap: square"/>
   </g>
   <g id="line2d_84">
    <path d="M 170.654006 57.209404 
L 170.654006 45.734914 
" clip-path="url(#p25f250c686)" style="fill: none; stroke: #666699; stroke-linecap: square"/>
   </g>
   <g id="line2d_85">
    <path d="M 169.224685 82.864223 
L 172.083328 82.864223 
" clip-path="url(#p25f250c686)" style="fill: none; stroke: #000000; stroke-linecap: square"/>
   </g>
   <g id="line2d_86">
    <path d="M 169.224685 45.734914 
L 172.083328 45.734914 
" clip-path="url(#p25f250c686)" style="fill: none; stroke: #000000; stroke-linecap: square"/>
   </g>
   <g id="line2d_87"/>
   <g id="patch_14">
    <path d="M 179.229938 71.458426 
L 184.947226 71.458426 
L 184.947226 58.446191 
L 179.229938 58.446191 
L 179.229938 71.458426 
z
" clip-path="url(#p25f250c686)" style="fill: #ffc0cb; stroke: #666699; stroke-linejoin: miter"/>
   </g>
   <g id="line2d_88">
    <path d="M 182.088582 71.458426 
L 182.088582 85.080949 
" clip-path="url(#p25f250c686)" style="fill: none; stroke: #666699; stroke-linecap: square"/>
   </g>
   <g id="line2d_89">
    <path d="M 182.088582 58.446191 
L 182.088582 52.194681 
" clip-path="url(#p25f250c686)" style="fill: none; stroke: #666699; stroke-linecap: square"/>
   </g>
   <g id="line2d_90">
    <path d="M 180.65926 85.080949 
L 183.517904 85.080949 
" clip-path="url(#p25f250c686)" style="fill: none; stroke: #000000; stroke-linecap: square"/>
   </g>
   <g id="line2d_91">
    <path d="M 180.65926 52.194681 
L 183.517904 52.194681 
" clip-path="url(#p25f250c686)" style="fill: none; stroke: #000000; stroke-linecap: square"/>
   </g>
   <g id="line2d_92">
    <g clip-path="url(#p25f250c686)">
     <use xlink:href="#m18f28d205e" x="182.088582" y="102.127166" style="fill: #666699; stroke: #ffffff"/>
     <use xlink:href="#m18f28d205e" x="182.088582" y="92.979066" style="fill: #666699; stroke: #ffffff"/>
    </g>
   </g>
   <g id="patch_15">
    <path d="M 190.664513 82.991882 
L 196.381801 82.991882 
L 196.381801 66.878084 
L 190.664513 66.878084 
L 190.664513 82.991882 
z
" clip-path="url(#p25f250c686)" style="fill: #d3d3d3; stroke: #666699; stroke-linejoin: miter"/>
   </g>
   <g id="line2d_93">
    <path d="M 193.523157 82.991882 
L 193.523157 105.899679 
" clip-path="url(#p25f250c686)" style="fill: none; stroke: #666699; stroke-linecap: square"/>
   </g>
   <g id="line2d_94">
    <path d="M 193.523157 66.878084 
L 193.523157 48.303842 
" clip-path="url(#p25f250c686)" style="fill: none; stroke: #666699; stroke-linecap: square"/>
   </g>
   <g id="line2d_95">
    <path d="M 192.093835 105.899679 
L 194.952479 105.899679 
" clip-path="url(#p25f250c686)" style="fill: none; stroke: #000000; stroke-linecap: square"/>
   </g>
   <g id="line2d_96">
    <path d="M 192.093835 48.303842 
L 194.952479 48.303842 
" clip-path="url(#p25f250c686)" style="fill: none; stroke: #000000; stroke-linecap: square"/>
   </g>
   <g id="line2d_97"/>
   <g id="patch_16">
    <path d="M 202.099089 95.652716 
L 207.816376 95.652716 
L 207.816376 80.062036 
L 202.099089 80.062036 
L 202.099089 95.652716 
z
" clip-path="url(#p25f250c686)" style="fill: #d3d3d3; stroke: #666699; stroke-linejoin: miter"/>
   </g>
   <g id="line2d_98">
    <path d="M 204.957733 95.652716 
L 204.957733 119.035003 
" clip-path="url(#p25f250c686)" style="fill: none; stroke: #666699; stroke-linecap: square"/>
   </g>
   <g id="line2d_99">
    <path d="M 204.957733 80.062036 
L 204.957733 62.776889 
" clip-path="url(#p25f250c686)" style="fill: none; stroke: #666699; stroke-linecap: square"/>
   </g>
   <g id="line2d_100">
    <path d="M 203.528411 119.035003 
L 206.387054 119.035003 
" clip-path="url(#p25f250c686)" style="fill: none; stroke: #000000; stroke-linecap: square"/>
   </g>
   <g id="line2d_101">
    <path d="M 203.528411 62.776889 
L 206.387054 62.776889 
" clip-path="url(#p25f250c686)" style="fill: none; stroke: #000000; stroke-linecap: square"/>
   </g>
   <g id="line2d_102">
    <g clip-path="url(#p25f250c686)">
     <use xlink:href="#m18f28d205e" x="204.957733" y="159.303612" style="fill: #666699; stroke: #ffffff"/>
     <use xlink:href="#m18f28d205e" x="204.957733" y="126.600551" style="fill: #666699; stroke: #ffffff"/>
     <use xlink:href="#m18f28d205e" x="204.957733" y="127.975519" style="fill: #666699; stroke: #ffffff"/>
    </g>
   </g>
   <g id="patch_17">
    <path d="M 213.533664 120.772885 
L 219.250952 120.772885 
L 219.250952 95.080968 
L 213.533664 95.080968 
L 213.533664 120.772885 
z
" clip-path="url(#p25f250c686)" style="fill: #d3d3d3; stroke: #666699; stroke-linejoin: miter"/>
   </g>
   <g id="line2d_103">
    <path d="M 216.392308 120.772885 
L 216.392308 156.305849 
" clip-path="url(#p25f250c686)" style="fill: none; stroke: #666699; stroke-linecap: square"/>
   </g>
   <g id="line2d_104">
    <path d="M 216.392308 95.080968 
L 216.392308 68.580236 
" clip-path="url(#p25f250c686)" style="fill: none; stroke: #666699; stroke-linecap: square"/>
   </g>
   <g id="line2d_105">
    <path d="M 214.962986 156.305849 
L 217.82163 156.305849 
" clip-path="url(#p25f250c686)" style="fill: none; stroke: #000000; stroke-linecap: square"/>
   </g>
   <g id="line2d_106">
    <path d="M 214.962986 68.580236 
L 217.82163 68.580236 
" clip-path="url(#p25f250c686)" style="fill: none; stroke: #000000; stroke-linecap: square"/>
   </g>
   <g id="line2d_107">
    <g clip-path="url(#p25f250c686)">
     <use xlink:href="#m18f28d205e" x="216.392308" y="171.923043" style="fill: #666699; stroke: #ffffff"/>
     <use xlink:href="#m18f28d205e" x="216.392308" y="159.773129" style="fill: #666699; stroke: #ffffff"/>
    </g>
   </g>
   <g id="patch_18">
    <path d="M 224.968239 146.244219 
L 230.685527 146.244219 
L 230.685527 118.355902 
L 224.968239 118.355902 
L 224.968239 146.244219 
z
" clip-path="url(#p25f250c686)" style="fill: #d3d3d3; stroke: #666699; stroke-linejoin: miter"/>
   </g>
   <g id="line2d_108">
    <path d="M 227.826883 146.244219 
L 227.826883 171.756974 
" clip-path="url(#p25f250c686)" style="fill: none; stroke: #666699; stroke-linecap: square"/>
   </g>
   <g id="line2d_109">
    <path d="M 227.826883 118.355902 
L 227.826883 86.936273 
" clip-path="url(#p25f250c686)" style="fill: none; stroke: #666699; stroke-linecap: square"/>
   </g>
   <g id="line2d_110">
    <path d="M 226.397561 171.756974 
L 229.256205 171.756974 
" clip-path="url(#p25f250c686)" style="fill: none; stroke: #000000; stroke-linecap: square"/>
   </g>
   <g id="line2d_111">
    <path d="M 226.397561 86.936273 
L 229.256205 86.936273 
" clip-path="url(#p25f250c686)" style="fill: none; stroke: #000000; stroke-linecap: square"/>
   </g>
   <g id="line2d_112"/>
   <g id="patch_19">
    <path d="M 236.402815 172.454577 
L 242.120102 172.454577 
L 242.120102 149.601603 
L 236.402815 149.601603 
L 236.402815 172.454577 
z
" clip-path="url(#p25f250c686)" style="fill: #d3d3d3; stroke: #666699; stroke-linejoin: miter"/>
   </g>
   <g id="line2d_113">
    <path d="M 239.261459 172.454577 
L 239.261459 189.148111 
" clip-path="url(#p25f250c686)" style="fill: none; stroke: #666699; stroke-linecap: square"/>
   </g>
   <g id="line2d_114">
    <path d="M 239.261459 149.601603 
L 239.261459 122.068412 
" clip-path="url(#p25f250c686)" style="fill: none; stroke: #666699; stroke-linecap: square"/>
   </g>
   <g id="line2d_115">
    <path d="M 237.832137 189.148111 
L 240.69078 189.148111 
" clip-path="url(#p25f250c686)" style="fill: none; stroke: #000000; stroke-linecap: square"/>
   </g>
   <g id="line2d_116">
    <path d="M 237.832137 122.068412 
L 240.69078 122.068412 
" clip-path="url(#p25f250c686)" style="fill: none; stroke: #000000; stroke-linecap: square"/>
   </g>
   <g id="line2d_117">
    <g clip-path="url(#p25f250c686)">
     <use xlink:href="#m18f28d205e" x="239.261459" y="105.526065" style="fill: #666699; stroke: #ffffff"/>
    </g>
   </g>
   <g id="patch_20">
    <path d="M 247.83739 187.116234 
L 253.554678 187.116234 
L 253.554678 176.595379 
L 247.83739 176.595379 
L 247.83739 187.116234 
z
" clip-path="url(#p25f250c686)" style="fill: #d3d3d3; stroke: #666699; stroke-linejoin: miter"/>
   </g>
   <g id="line2d_118">
    <path d="M 250.696034 187.116234 
L 250.696034 197.838997 
" clip-path="url(#p25f250c686)" style="fill: none; stroke: #666699; stroke-linecap: square"/>
   </g>
   <g id="line2d_119">
    <path d="M 250.696034 176.595379 
L 250.696034 161.812629 
" clip-path="url(#p25f250c686)" style="fill: none; stroke: #666699; stroke-linecap: square"/>
   </g>
   <g id="line2d_120">
    <path d="M 249.266712 197.838997 
L 252.125356 197.838997 
" clip-path="url(#p25f250c686)" style="fill: none; stroke: #000000; stroke-linecap: square"/>
   </g>
   <g id="line2d_121">
    <path d="M 249.266712 161.812629 
L 252.125356 161.812629 
" clip-path="url(#p25f250c686)" style="fill: none; stroke: #000000; stroke-linecap: square"/>
   </g>
   <g id="line2d_122">
    <g clip-path="url(#p25f250c686)">
     <use xlink:href="#m18f28d205e" x="250.696034" y="156.440086" style="fill: #666699; stroke: #ffffff"/>
     <use xlink:href="#m18f28d205e" x="250.696034" y="151.398878" style="fill: #666699; stroke: #ffffff"/>
     <use xlink:href="#m18f28d205e" x="250.696034" y="154.985424" style="fill: #666699; stroke: #ffffff"/>
    </g>
   </g>
   <g id="patch_21">
    <path d="M 259.271965 191.348376 
L 264.989253 191.348376 
L 264.989253 179.608113 
L 259.271965 179.608113 
L 259.271965 191.348376 
z
" clip-path="url(#p25f250c686)" style="fill: #d3d3d3; stroke: #666699; stroke-linejoin: miter"/>
   </g>
   <g id="line2d_123">
    <path d="M 262.130609 191.348376 
L 262.130609 202.305698 
" clip-path="url(#p25f250c686)" style="fill: none; stroke: #666699; stroke-linecap: square"/>
   </g>
   <g id="line2d_124">
    <path d="M 262.130609 179.608113 
L 262.130609 163.987953 
" clip-path="url(#p25f250c686)" style="fill: none; stroke: #666699; stroke-linecap: square"/>
   </g>
   <g id="line2d_125">
    <path d="M 260.701287 202.305698 
L 263.559931 202.305698 
" clip-path="url(#p25f250c686)" style="fill: none; stroke: #000000; stroke-linecap: square"/>
   </g>
   <g id="line2d_126">
    <path d="M 260.701287 163.987953 
L 263.559931 163.987953 
" clip-path="url(#p25f250c686)" style="fill: none; stroke: #000000; stroke-linecap: square"/>
   </g>
   <g id="line2d_127"/>
   <g id="patch_22">
    <path d="M 270.706541 190.439634 
L 276.423828 190.439634 
L 276.423828 180.803526 
L 270.706541 180.803526 
L 270.706541 190.439634 
z
" clip-path="url(#p25f250c686)" style="fill: #d3d3d3; stroke: #666699; stroke-linejoin: miter"/>
   </g>
   <g id="line2d_128">
    <path d="M 273.565185 190.439634 
L 273.565185 199.996488 
" clip-path="url(#p25f250c686)" style="fill: none; stroke: #666699; stroke-linecap: square"/>
   </g>
   <g id="line2d_129">
    <path d="M 273.565185 180.803526 
L 273.565185 168.122904 
" clip-path="url(#p25f250c686)" style="fill: none; stroke: #666699; stroke-linecap: square"/>
   </g>
   <g id="line2d_130">
    <path d="M 272.135863 199.996488 
L 274.994507 199.996488 
" clip-path="url(#p25f250c686)" style="fill: none; stroke: #000000; stroke-linecap: square"/>
   </g>
   <g id="line2d_131">
    <path d="M 272.135863 168.122904 
L 274.994507 168.122904 
" clip-path="url(#p25f250c686)" style="fill: none; stroke: #000000; stroke-linecap: square"/>
   </g>
   <g id="line2d_132">
    <g clip-path="url(#p25f250c686)">
     <use xlink:href="#m18f28d205e" x="273.565185" y="163.802175" style="fill: #666699; stroke: #ffffff"/>
     <use xlink:href="#m18f28d205e" x="273.565185" y="166.262817" style="fill: #666699; stroke: #ffffff"/>
    </g>
   </g>
   <g id="line2d_133">
    <path d="M 56.308253 46.669645 
L 58.49174 47.217151 
L 60.675226 47.554145 
L 62.858713 47.716072 
L 66.133943 47.70825 
L 70.500917 47.415909 
L 77.051377 46.949284 
L 80.326607 46.960951 
L 83.601837 47.210494 
L 89.060554 47.912828 
L 95.611014 48.707431 
L 99.977988 48.993754 
L 103.253218 49.014865 
L 110.895422 48.92856 
L 113.078908 49.120096 
L 115.262395 49.499132 
L 119.629369 50.582528 
L 122.904599 51.327996 
L 125.088086 51.625427 
L 127.271572 51.701112 
L 134.913776 51.635125 
L 137.097263 51.983681 
L 139.280749 52.611236 
L 143.647723 54.251775 
L 146.922953 55.342183 
L 149.10644 55.784525 
L 152.38167 56.073325 
L 155.6569 56.30138 
L 157.840387 56.638318 
L 160.023874 57.274016 
L 162.20736 58.232867 
L 165.48259 60.003916 
L 168.757821 61.771018 
L 170.941307 62.72296 
L 173.124794 63.404282 
L 179.675254 65.088638 
L 181.858741 66.012528 
L 184.042228 67.330605 
L 186.225715 69.004477 
L 188.409201 70.942808 
L 192.776175 75.247318 
L 199.326635 81.9825 
L 201.510122 84.519636 
L 203.693609 87.358939 
L 205.877095 90.591609 
L 208.060582 94.219251 
L 211.335812 100.161787 
L 218.978016 114.409465 
L 224.436733 124.428228 
L 227.711963 131.030725 
L 230.987193 138.403166 
L 235.354166 149.030719 
L 240.812883 162.434372 
L 244.088113 169.85346 
L 246.2716 174.250188 
L 248.455087 178.03979 
L 249.54683 179.662011 
L 250.638574 181.078559 
L 251.730317 182.276437 
L 252.822061 183.265914 
L 253.913804 184.064065 
L 255.005547 184.687967 
L 256.097291 185.154698 
L 257.189034 185.481335 
L 259.372521 185.782634 
L 261.556008 185.728481 
L 264.831238 185.279628 
L 268.106468 184.799478 
L 270.289955 184.689685 
L 272.473441 184.907524 
L 273.565185 185.181999 
L 273.565185 185.181999 
" clip-path="url(#p25f250c686)" style="fill: none; stroke: #1f77b4; stroke-width: 1.5; stroke-linecap: square"/>
   </g>
   <g id="line2d_134">
    <path d="M 56.308253 44.25778 
L 58.49174 44.948179 
L 61.76697 45.708462 
L 65.0422 46.215957 
L 69.409173 46.650261 
L 77.051377 47.324656 
L 80.326607 47.805539 
L 84.693581 48.720933 
L 91.244041 50.398237 
L 96.702758 51.748346 
L 99.977988 52.397357 
L 103.253218 52.84413 
L 110.895422 53.64735 
L 113.078908 54.101936 
L 115.262395 54.761689 
L 119.629369 56.444763 
L 122.904599 57.646825 
L 125.088086 58.239217 
L 127.271572 58.596414 
L 134.913776 59.440134 
L 137.097263 60.038473 
L 139.280749 60.916297 
L 143.647723 63.068891 
L 146.922953 64.563287 
L 149.10644 65.288744 
L 152.38167 66.013689 
L 156.748643 66.93946 
L 158.93213 67.660917 
L 161.115617 68.691394 
L 164.390847 70.656048 
L 168.757821 73.405547 
L 170.941307 74.556526 
L 173.124794 75.454808 
L 179.675254 77.806232 
L 181.858741 78.922906 
L 184.042228 80.403273 
L 186.225715 82.209968 
L 189.500945 85.341595 
L 198.234892 94.385454 
L 201.510122 98.115198 
L 203.693609 100.922469 
L 205.877095 104.086803 
L 208.060582 107.607292 
L 211.335812 113.318826 
L 217.886272 124.89416 
L 225.528476 137.770886 
L 228.803706 143.912155 
L 232.078936 150.683351 
L 242.99637 173.946724 
L 245.179857 177.968194 
L 247.363344 181.515461 
L 249.54683 184.471765 
L 250.638574 185.691817 
L 251.730317 186.724478 
L 252.822061 187.578659 
L 253.913804 188.268943 
L 255.005547 188.809913 
L 256.097291 189.21615 
L 258.280777 189.68276 
L 260.464264 189.785431 
L 262.647751 189.640826 
L 269.198211 188.889956 
L 271.381698 188.92285 
L 273.565185 189.29177 
L 273.565185 189.29177 
" clip-path="url(#p25f250c686)" style="fill: none; stroke: #4ab311; stroke-width: 1.5; stroke-linecap: square"/>
   </g>
   <g id="line2d_135">
    <path d="M 53.449609 46.369867 
L 59.166897 46.369867 
" clip-path="url(#p25f250c686)" style="fill: none; stroke: #ff7f0e"/>
   </g>
   <g id="line2d_136">
    <path d="M 64.884184 46.933154 
L 70.601472 46.933154 
" clip-path="url(#p25f250c686)" style="fill: none; stroke: #ff7f0e"/>
   </g>
   <g id="line2d_137">
    <path d="M 76.31876 46.477238 
L 82.036047 46.477238 
" clip-path="url(#p25f250c686)" style="fill: none; stroke: #ff7f0e"/>
   </g>
   <g id="line2d_138">
    <path d="M 87.753335 48.327938 
L 93.470623 48.327938 
" clip-path="url(#p25f250c686)" style="fill: none; stroke: #ff7f0e"/>
   </g>
   <g id="line2d_139">
    <path d="M 99.18791 48.340094 
L 104.905198 48.340094 
" clip-path="url(#p25f250c686)" style="fill: none; stroke: #ff7f0e"/>
   </g>
   <g id="line2d_140">
    <path d="M 110.622486 49.023607 
L 116.339773 49.023607 
" clip-path="url(#p25f250c686)" style="fill: none; stroke: #ff7f0e"/>
   </g>
   <g id="line2d_141">
    <path d="M 122.057061 51.800118 
L 127.774349 51.800118 
" clip-path="url(#p25f250c686)" style="fill: none; stroke: #ff7f0e"/>
   </g>
   <g id="line2d_142">
    <path d="M 133.491637 51.336167 
L 139.208924 51.336167 
" clip-path="url(#p25f250c686)" style="fill: none; stroke: #ff7f0e"/>
   </g>
   <g id="line2d_143">
    <path d="M 144.926212 55.075873 
L 150.6435 55.075873 
" clip-path="url(#p25f250c686)" style="fill: none; stroke: #ff7f0e"/>
   </g>
   <g id="line2d_144">
    <path d="M 156.360787 56.887264 
L 162.078075 56.887264 
" clip-path="url(#p25f250c686)" style="fill: none; stroke: #ff7f0e"/>
   </g>
   <g id="line2d_145">
    <path d="M 167.795363 62.264164 
L 173.51265 62.264164 
" clip-path="url(#p25f250c686)" style="fill: none; stroke: #ff7f0e"/>
   </g>
   <g id="line2d_146">
    <path d="M 179.229938 65.350754 
L 184.947226 65.350754 
" clip-path="url(#p25f250c686)" style="fill: none; stroke: #ff7f0e"/>
   </g>
   <g id="line2d_147">
    <path d="M 190.664513 74.621493 
L 196.381801 74.621493 
" clip-path="url(#p25f250c686)" style="fill: none; stroke: #ff7f0e"/>
   </g>
   <g id="line2d_148">
    <path d="M 202.099089 86.883394 
L 207.816376 86.883394 
" clip-path="url(#p25f250c686)" style="fill: none; stroke: #ff7f0e"/>
   </g>
   <g id="line2d_149">
    <path d="M 213.533664 111.33302 
L 219.250952 111.33302 
" clip-path="url(#p25f250c686)" style="fill: none; stroke: #ff7f0e"/>
   </g>
   <g id="line2d_150">
    <path d="M 224.968239 131.886878 
L 230.685527 131.886878 
" clip-path="url(#p25f250c686)" style="fill: none; stroke: #ff7f0e"/>
   </g>
   <g id="line2d_151">
    <path d="M 236.402815 159.743091 
L 242.120102 159.743091 
" clip-path="url(#p25f250c686)" style="fill: none; stroke: #ff7f0e"/>
   </g>
   <g id="line2d_152">
    <path d="M 247.83739 182.196072 
L 253.554678 182.196072 
" clip-path="url(#p25f250c686)" style="fill: none; stroke: #ff7f0e"/>
   </g>
   <g id="line2d_153">
    <path d="M 259.271965 186.873279 
L 264.989253 186.873279 
" clip-path="url(#p25f250c686)" style="fill: none; stroke: #ff7f0e"/>
   </g>
   <g id="line2d_154">
    <path d="M 270.706541 185.88945 
L 276.423828 185.88945 
" clip-path="url(#p25f250c686)" style="fill: none; stroke: #ff7f0e"/>
   </g>
   <g id="patch_23">
    <path d="M 44.873677 213.307416 
L 44.873677 7.652818 
" style="fill: none; stroke: #e0e0e0; stroke-width: 0.8; stroke-linejoin: miter; stroke-linecap: square"/>
   </g>
   <g id="patch_24">
    <path d="M 284.99976 213.307416 
L 284.99976 7.652818 
" style="fill: none; stroke: #e0e0e0; stroke-width: 0.8; stroke-linejoin: miter; stroke-linecap: square"/>
   </g>
   <g id="patch_25">
    <path d="M 44.873677 213.307416 
L 284.99976 213.307416 
" style="fill: none; stroke: #e0e0e0; stroke-width: 0.8; stroke-linejoin: miter; stroke-linecap: square"/>
   </g>
   <g id="patch_26">
    <path d="M 44.873677 7.652818 
L 284.99976 7.652818 
" style="fill: none; stroke: #e0e0e0; stroke-width: 0.8; stroke-linejoin: miter; stroke-linecap: square"/>
   </g>
   <g id="legend_1">
    <g id="patch_27">
     <path d="M 53.273677 207.307416 
L 149.299927 207.307416 
Q 151.699928 207.307416 151.699928 204.907416 
L 151.699928 174.558666 
Q 151.699928 172.158666 149.299927 172.158666 
L 53.273677 172.158666 
Q 50.873677 172.158666 50.873677 174.558666 
L 50.873677 204.907416 
Q 50.873677 207.307416 53.273677 207.307416 
z
" style="fill: #ffffff; opacity: 0.8; stroke: #cccccc; stroke-linejoin: miter"/>
    </g>
    <g id="line2d_155">
     <path d="M 54.473678 180.148041 
L 58.373677 180.148041 
L 62.273678 180.148041 
" style="fill: none; stroke: #1f77b4; stroke-width: 1.5; stroke-linecap: square"/>
    </g>
    <g id="text_19">
     <!-- LassoView -->
     <g transform="translate(68.273678 184.348041) scale(0.12 -0.12)">
      <defs>
       <path id="ArialMT-4c" d="M 469 0 
L 469 4581 
L 1075 4581 
L 1075 541 
L 3331 541 
L 3331 0 
L 469 0 
z
" transform="scale(0.015625)"/>
       <path id="ArialMT-73" d="M 197 991 
L 753 1078 
Q 800 744 1014 566 
Q 1228 388 1613 388 
Q 2000 388 2187 545 
Q 2375 703 2375 916 
Q 2375 1106 2209 1216 
Q 2094 1291 1634 1406 
Q 1016 1563 777 1677 
Q 538 1791 414 1992 
Q 291 2194 291 2438 
Q 291 2659 392 2848 
Q 494 3038 669 3163 
Q 800 3259 1026 3326 
Q 1253 3394 1513 3394 
Q 1903 3394 2198 3281 
Q 2494 3169 2634 2976 
Q 2775 2784 2828 2463 
L 2278 2388 
Q 2241 2644 2061 2787 
Q 1881 2931 1553 2931 
Q 1166 2931 1000 2803 
Q 834 2675 834 2503 
Q 834 2394 903 2306 
Q 972 2216 1119 2156 
Q 1203 2125 1616 2013 
Q 2213 1853 2448 1751 
Q 2684 1650 2818 1456 
Q 2953 1263 2953 975 
Q 2953 694 2789 445 
Q 2625 197 2315 61 
Q 2006 -75 1616 -75 
Q 969 -75 630 194 
Q 291 463 197 991 
z
" transform="scale(0.015625)"/>
       <path id="ArialMT-56" d="M 1803 0 
L 28 4581 
L 684 4581 
L 1875 1253 
Q 2019 853 2116 503 
Q 2222 878 2363 1253 
L 3600 4581 
L 4219 4581 
L 2425 0 
L 1803 0 
z
" transform="scale(0.015625)"/>
       <path id="ArialMT-69" d="M 425 3934 
L 425 4581 
L 988 4581 
L 988 3934 
L 425 3934 
z
M 425 0 
L 425 3319 
L 988 3319 
L 988 0 
L 425 0 
z
" transform="scale(0.015625)"/>
       <path id="ArialMT-77" d="M 1034 0 
L 19 3319 
L 600 3319 
L 1128 1403 
L 1325 691 
Q 1338 744 1497 1375 
L 2025 3319 
L 2603 3319 
L 3100 1394 
L 3266 759 
L 3456 1400 
L 4025 3319 
L 4572 3319 
L 3534 0 
L 2950 0 
L 2422 1988 
L 2294 2553 
L 1622 0 
L 1034 0 
z
" transform="scale(0.015625)"/>
      </defs>
      <use xlink:href="#ArialMT-4c"/>
      <use xlink:href="#ArialMT-61" x="55.615234"/>
      <use xlink:href="#ArialMT-73" x="111.230469"/>
      <use xlink:href="#ArialMT-73" x="161.230469"/>
      <use xlink:href="#ArialMT-6f" x="211.230469"/>
      <use xlink:href="#ArialMT-56" x="266.845703"/>
      <use xlink:href="#ArialMT-69" x="331.794922"/>
      <use xlink:href="#ArialMT-65" x="354.011719"/>
      <use xlink:href="#ArialMT-77" x="409.626953"/>
     </g>
    </g>
    <g id="line2d_156">
     <path d="M 54.473678 197.122416 
L 58.373677 197.122416 
L 62.273678 197.122416 
" style="fill: none; stroke: #4ab311; stroke-width: 1.5; stroke-linecap: square"/>
    </g>
    <g id="text_20">
     <!-- LassoView w/o -->
     <g transform="translate(68.273678 201.322416) scale(0.12 -0.12)">
      <defs>
       <path id="ArialMT-2f" d="M 0 -78 
L 1328 4659 
L 1778 4659 
L 453 -78 
L 0 -78 
z
" transform="scale(0.015625)"/>
      </defs>
      <use xlink:href="#ArialMT-4c"/>
      <use xlink:href="#ArialMT-61" x="55.615234"/>
      <use xlink:href="#ArialMT-73" x="111.230469"/>
      <use xlink:href="#ArialMT-73" x="161.230469"/>
      <use xlink:href="#ArialMT-6f" x="211.230469"/>
      <use xlink:href="#ArialMT-56" x="266.845703"/>
      <use xlink:href="#ArialMT-69" x="331.794922"/>
      <use xlink:href="#ArialMT-65" x="354.011719"/>
      <use xlink:href="#ArialMT-77" x="409.626953"/>
      <use xlink:href="#ArialMT-20" x="481.84375"/>
      <use xlink:href="#ArialMT-77" x="509.626953"/>
      <use xlink:href="#ArialMT-2f" x="581.84375"/>
      <use xlink:href="#ArialMT-6f" x="609.626953"/>
     </g>
    </g>
   </g>
  </g>
 </g>
 <defs>
  <clipPath id="p25f250c686">
   <rect x="44.873677" y="7.652818" width="240.126083" height="205.654598"/>
  </clipPath>
 </defs>
</svg>
